<svg width="332" height="41" viewBox="0 0 332 41" fill="none" xmlns="http://www.w3.org/2000/svg">
<path d="M18.5341 40.6847C6.9503 40.6847 0 36.0512 0 20.1728C0 4.91607 6.9503 0 18.5341 0C29.1574 0 35.7121 3.72943 36.6727 14.3527H25.0889C24.6368 9.94515 22.1506 9.04105 18.5341 9.04105C14.5787 9.04105 11.5838 10.0017 11.5838 16.8389V23.7327C11.5838 30.57 14.4657 31.6437 18.5341 31.6437C22.0941 31.6437 24.5238 30.57 25.1454 26.219H36.7292C35.5991 36.7292 29.1574 40.6847 18.5341 40.6847Z" fill="white"/>
<path d="M49.5818 0.847597H65.9687L78.0046 39.8371H66.0817L63.8215 32.3782H50.0339L47.8301 39.8371H37.5459L49.5818 0.847597ZM56.9277 9.4931L52.5767 23.9023H61.2787L56.9277 9.4931Z" fill="white"/>
<path d="M114.038 27.3492C114.038 37.1813 107.765 40.6847 97.1422 40.6847C86.519 40.6847 80.0773 36.9553 79.7382 27.1796H91.3221C91.4351 31.1351 93.6953 31.9262 97.1422 31.9262C100.815 31.9262 103.132 31.3046 103.132 28.1403C103.132 21.2465 80.3598 29.2139 80.3598 12.4879C80.3598 3.50341 86.632 0 96.6337 0C106.635 0 113.19 3.50341 113.36 12.4879H101.776C101.606 9.38008 99.6285 8.75851 96.6337 8.75851C93.3563 8.75851 91.209 9.38008 91.209 12.3749C91.209 18.8732 114.038 11.9794 114.038 27.3492Z" fill="white"/>
<path d="M130.693 39.8371H119.392V0.847597H130.693V39.8371Z" fill="white"/>
<path d="M153.031 0.847597L163.541 25.3714V0.847597H173.995V39.8371H158.456L147.946 15.3698V39.8371H137.492V0.847597H153.031Z" fill="white"/>
<path d="M219.462 19.7773C219.462 35.9947 212.229 40.6847 199.402 40.6847C186.575 40.6847 179.342 35.9947 179.342 19.7773C179.342 4.57703 186.575 0 199.402 0C212.229 0 219.462 4.57703 219.462 19.7773ZM207.878 23.0547V17.517C207.878 10.9623 204.996 9.04105 199.402 9.04105C193.808 9.04105 190.926 10.9623 190.926 17.517V23.0547C190.926 30.231 193.808 31.6437 199.402 31.6437C204.996 31.6437 207.878 30.231 207.878 23.0547Z" fill="white"/>
<path d="M258.467 28.2533C258.467 35.5992 254.059 39.8372 245.244 39.8372H224.845V0.847656H245.809C253.211 0.847656 257.562 4.18154 257.562 10.3408C257.562 14.0702 256.037 17.5736 251.008 19.2123C256.489 20.6814 258.467 24.0718 258.467 28.2533ZM246.883 26.8407C246.883 24.6934 245.244 23.3938 242.419 23.3938H235.864V31.9262H242.419C245.244 31.9262 246.883 30.6831 246.883 28.4228V26.8407ZM245.979 11.8099C245.979 9.8887 244.453 8.75857 241.91 8.75857H235.864V16.1609H241.91C244.453 16.1609 245.979 15.0308 245.979 12.9401V11.8099Z" fill="#FFF500"/>
<path d="M293.194 39.8372H263.528V0.847656H293.137V10.1712H274.829V15.2568H288.447V24.2979H274.829V30.5136H293.194V39.8372Z" fill="#FFF500"/>
<path d="M331.449 10.4538H319.639V39.8372H308.338V10.4538H296.584V0.847656H331.449V10.4538Z" fill="#FFF500"/>
</svg>
